<svg width="162" height="162" viewBox="0 0 162 162" fill="none" xmlns="http://www.w3.org/2000/svg">
  <path d="M99.1396 0.126297L138.412 0.125695C143.772 0.128352 155.018 -0.14871 159.833 0.519266C160.91 1.32877 160.6 1.12061 161.21 2.50237C161.23 5.507 127.159 53.1262 122.214 60.2606C116.121 69.0961 103.222 88.281 96.2433 96.3448L96.2477 35.1809C96.2491 25.9302 96.113 16.6641 96.1383 7.41632C96.1507 3.00366 96.0815 2.95987 99.1396 0.126297Z" fill="#73E4BE"/>
  <path d="M161.167 66.8632C163.171 69.8451 160.787 145.327 161.71 153.35C162.848 163.238 156.002 161.668 148.796 161.727C144.894 161.759 140.546 161.729 136.652 161.728C123.589 161.791 110.524 161.747 97.4608 161.599C96.7335 160.776 96.6733 160.552 96.3298 159.512C96.4791 158.234 107.238 143.493 108.761 141.319L141.805 93.968C146.687 86.9278 155.86 72.9907 161.167 66.8632Z" fill="#73E4BE"/>
  <path d="M65.8262 66.8225L66.6426 67.6328C68.1167 92.946 65.6831 120.361 66.772 145.899C66.9232 149.441 67.034 157.721 65.2594 160.638C60.9129 162.874 10.5995 161.686 1.67394 161.673L0.527768 160.402C0.368614 158.704 8.92483 147.494 10.4258 145.393C15.4752 138.304 20.4653 131.177 25.3955 124.012C37.6833 106.279 52.6578 83.6113 65.8262 66.8225Z" fill="#73E4BE"/>
  <path d="M2.26562 0.159474C20.5535 -0.319666 39.2035 0.469959 57.5308 0.0956706C59.9002 0.0472939 65.0161 -0.0963379 66.3949 1.87773C66.0483 4.50533 31.049 53.8049 27.2197 59.2969C20.8229 68.1783 7.48913 89.947 0.100974 96.5877L0.09601 36.3884C0.0964975 25.602 -0.140702 14.7671 0.128765 3.98707C0.182748 1.82622 0.670048 1.62132 2.26562 0.159474Z" fill="#73E4BE"/>
</svg>
