<svg width="744" height="162" viewBox="0 0 744 162" fill="none" xmlns="http://www.w3.org/2000/svg">
<path d="M99.1396 0.126297L138.412 0.125695C143.772 0.128352 155.018 -0.14871 159.833 0.519266C160.91 1.32877 160.6 1.12061 161.21 2.50237C161.23 5.507 127.159 53.1262 122.214 60.2606C116.121 69.0961 103.222 88.281 96.2433 96.3448L96.2477 35.1809C96.2491 25.9302 96.113 16.6641 96.1383 7.41632C96.1507 3.00366 96.0815 2.95987 99.1396 0.126297Z" fill="#73E4BE"/>
<path d="M161.167 66.8632C163.171 69.8451 160.787 145.327 161.71 153.35C162.848 163.238 156.002 161.668 148.796 161.727C144.894 161.759 140.546 161.729 136.652 161.728C123.589 161.791 110.524 161.747 97.4608 161.599C96.7335 160.776 96.6733 160.552 96.3298 159.512C96.4791 158.234 107.238 143.493 108.761 141.319L141.805 93.968C146.687 86.9278 155.86 72.9907 161.167 66.8632Z" fill="#73E4BE"/>
<path d="M65.8262 66.8225L66.6426 67.6328C68.1167 92.946 65.6831 120.361 66.772 145.899C66.9232 149.441 67.034 157.721 65.2594 160.638C60.9129 162.874 10.5995 161.686 1.67394 161.673L0.527768 160.402C0.368614 158.704 8.92483 147.494 10.4258 145.393C15.4752 138.304 20.4653 131.177 25.3955 124.012C37.6833 106.279 52.6578 83.6113 65.8262 66.8225Z" fill="#73E4BE"/>
<path d="M2.26562 0.159474C20.5535 -0.319666 39.2035 0.469959 57.5308 0.0956706C59.9002 0.0472939 65.0161 -0.0963379 66.3949 1.87773C66.0483 4.50533 31.049 53.8049 27.2197 59.2969C20.8229 68.1783 7.48913 89.947 0.100974 96.5877L0.09601 36.3884C0.0964975 25.602 -0.140702 14.7671 0.128765 3.98707C0.182748 1.82622 0.670048 1.62132 2.26562 0.159474Z" fill="#73E4BE"/>
<path d="M275.1 44.2V114H261.1V68.6L242.4 114H231.8L213 68.6V114H199V44.2H214.9L237.1 96.1L259.3 44.2H275.1Z" fill="white"/>
<path d="M313.541 114.9C308.208 114.9 303.408 113.733 299.141 111.4C294.875 109 291.508 105.633 289.041 101.3C286.641 96.9667 285.441 91.9667 285.441 86.3C285.441 80.6333 286.675 75.6333 289.141 71.3C291.675 66.9667 295.108 63.6333 299.441 61.3C303.775 58.9 308.608 57.7 313.941 57.7C319.275 57.7 324.108 58.9 328.441 61.3C332.775 63.6333 336.175 66.9667 338.641 71.3C341.175 75.6333 342.441 80.6333 342.441 86.3C342.441 91.9667 341.141 96.9667 338.541 101.3C336.008 105.633 332.541 109 328.141 111.4C323.808 113.733 318.941 114.9 313.541 114.9ZM313.541 102.7C316.075 102.7 318.441 102.1 320.641 100.9C322.908 99.6333 324.708 97.7667 326.041 95.3C327.375 92.8333 328.041 89.8333 328.041 86.3C328.041 81.0333 326.641 77 323.841 74.2C321.108 71.3333 317.741 69.9 313.741 69.9C309.741 69.9 306.375 71.3333 303.641 74.2C300.975 77 299.641 81.0333 299.641 86.3C299.641 91.5667 300.941 95.6333 303.541 98.5C306.208 101.3 309.541 102.7 313.541 102.7Z" fill="white"/>
<path d="M383.411 57.8C390.011 57.8 395.344 59.9 399.411 64.1C403.478 68.2333 405.511 74.0333 405.511 81.5V114H391.511V83.4C391.511 79 390.411 75.6333 388.211 73.3C386.011 70.9 383.011 69.7 379.211 69.7C375.344 69.7 372.278 70.9 370.011 73.3C367.811 75.6333 366.711 79 366.711 83.4V114H352.711V58.6H366.711V65.5C368.578 63.1 370.944 61.2333 373.811 59.9C376.744 58.5 379.944 57.8 383.411 57.8Z" fill="white"/>
<path d="M443.424 114.9C438.091 114.9 433.291 113.733 429.024 111.4C424.758 109 421.391 105.633 418.924 101.3C416.524 96.9667 415.324 91.9667 415.324 86.3C415.324 80.6333 416.558 75.6333 419.024 71.3C421.558 66.9667 424.991 63.6333 429.324 61.3C433.658 58.9 438.491 57.7 443.824 57.7C449.158 57.7 453.991 58.9 458.324 61.3C462.658 63.6333 466.058 66.9667 468.524 71.3C471.058 75.6333 472.324 80.6333 472.324 86.3C472.324 91.9667 471.024 96.9667 468.424 101.3C465.891 105.633 462.424 109 458.024 111.4C453.691 113.733 448.824 114.9 443.424 114.9ZM443.424 102.7C445.958 102.7 448.324 102.1 450.524 100.9C452.791 99.6333 454.591 97.7667 455.924 95.3C457.258 92.8333 457.924 89.8333 457.924 86.3C457.924 81.0333 456.524 77 453.724 74.2C450.991 71.3333 447.624 69.9 443.624 69.9C439.624 69.9 436.258 71.3333 433.524 74.2C430.858 77 429.524 81.0333 429.524 86.3C429.524 91.5667 430.824 95.6333 433.424 98.5C436.091 101.3 439.424 102.7 443.424 102.7Z" fill="white"/>
<path d="M533.494 65.8C533.494 69.5333 532.594 73.0333 530.794 76.3C529.06 79.5667 526.294 82.2 522.494 84.2C518.76 86.2 514.027 87.2 508.294 87.2H496.594V114H482.594V44.2H508.294C513.694 44.2 518.294 45.1333 522.094 47C525.894 48.8667 528.727 51.4333 530.594 54.7C532.527 57.9667 533.494 61.6667 533.494 65.8ZM507.694 75.9C511.56 75.9 514.427 75.0333 516.294 73.3C518.16 71.5 519.094 69 519.094 65.8C519.094 59 515.294 55.6 507.694 55.6H496.594V75.9H507.694Z" fill="#73E4BE"/>
<path d="M595.734 58.6V114H581.634V107C579.834 109.4 577.467 111.3 574.534 112.7C571.667 114.033 568.534 114.7 565.134 114.7C560.8 114.7 556.967 113.8 553.634 112C550.3 110.133 547.667 107.433 545.734 103.9C543.867 100.3 542.934 96.0333 542.934 91.1V58.6H556.934V89.1C556.934 93.5 558.034 96.9 560.234 99.3C562.434 101.633 565.434 102.8 569.234 102.8C573.1 102.8 576.134 101.633 578.334 99.3C580.534 96.9 581.634 93.5 581.634 89.1V58.6H595.734Z" fill="#73E4BE"/>
<path d="M623.547 40V114H609.547V40H623.547Z" fill="#73E4BE"/>
<path d="M658.579 114.9C654.046 114.9 649.979 114.1 646.379 112.5C642.779 110.833 639.912 108.6 637.779 105.8C635.712 103 634.579 99.9 634.379 96.5H648.479C648.746 98.6333 649.779 100.4 651.579 101.8C653.446 103.2 655.746 103.9 658.479 103.9C661.146 103.9 663.212 103.367 664.679 102.3C666.212 101.233 666.979 99.8667 666.979 98.2C666.979 96.4 666.046 95.0667 664.179 94.2C662.379 93.2667 659.479 92.2667 655.479 91.2C651.346 90.2 647.946 89.1667 645.279 88.1C642.679 87.0333 640.412 85.4 638.479 83.2C636.612 81 635.679 78.0333 635.679 74.3C635.679 71.2333 636.546 68.4333 638.279 65.9C640.079 63.3667 642.612 61.3667 645.879 59.9C649.212 58.4333 653.112 57.7 657.579 57.7C664.179 57.7 669.446 59.3667 673.379 62.7C677.312 65.9667 679.479 70.4 679.879 76H666.479C666.279 73.8 665.346 72.0667 663.679 70.8C662.079 69.4667 659.912 68.8 657.179 68.8C654.646 68.8 652.679 69.2667 651.279 70.2C649.946 71.1333 649.279 72.4333 649.279 74.1C649.279 75.9667 650.212 77.4 652.079 78.4C653.946 79.3333 656.846 80.3 660.779 81.3C664.779 82.3 668.079 83.3333 670.679 84.4C673.279 85.4667 675.512 87.1333 677.379 89.4C679.312 91.6 680.312 94.5333 680.379 98.2C680.379 101.4 679.479 104.267 677.679 106.8C675.946 109.333 673.412 111.333 670.079 112.8C666.812 114.2 662.979 114.9 658.579 114.9Z" fill="#73E4BE"/>
<path d="M743.371 85.1C743.371 87.1 743.238 88.9 742.971 90.5H702.471C702.804 94.5 704.204 97.6333 706.671 99.9C709.138 102.167 712.171 103.3 715.771 103.3C720.971 103.3 724.671 101.067 726.871 96.6H741.971C740.371 101.933 737.304 106.333 732.771 109.8C728.238 113.2 722.671 114.9 716.071 114.9C710.738 114.9 705.938 113.733 701.671 111.4C697.471 109 694.171 105.633 691.771 101.3C689.438 96.9667 688.271 91.9667 688.271 86.3C688.271 80.5667 689.438 75.5333 691.771 71.2C694.104 66.8667 697.371 63.5333 701.571 61.2C705.771 58.8667 710.604 57.7 716.071 57.7C721.338 57.7 726.038 58.8333 730.171 61.1C734.371 63.3667 737.604 66.6 739.871 70.8C742.204 74.9333 743.371 79.7 743.371 85.1ZM728.871 81.1C728.804 77.5 727.504 74.6333 724.971 72.5C722.438 70.3 719.338 69.2 715.671 69.2C712.204 69.2 709.271 70.2667 706.871 72.4C704.538 74.4667 703.104 77.3667 702.571 81.1H728.871Z" fill="#73E4BE"/>
</svg>
